<?xml version="1.0" standalone="no"?>
<!DOCTYPE svg PUBLIC "-//W3C//DTD SVG 20010904//EN"
 "http://www.w3.org/TR/2001/REC-SVG-20010904/DTD/svg10.dtd">
<svg version="1.0" xmlns="http://www.w3.org/2000/svg"
 width="4500.000000pt" height="4500.000000pt" viewBox="0 0 4500.000000 4500.000000"
 preserveAspectRatio="xMidYMid meet">

<g transform="translate(0.000000,4500.000000) scale(0.100000,-0.100000)"
fill="#000000" stroke="none">
<path d="M18885 41993 c-651 -25 -1242 -86 -1805 -184 -2245 -391 -4285 -1333
-6040 -2788 -549 -455 -1202 -1105 -1639 -1631 -57 -69 -112 -133 -121 -143
-17 -18 -20 -18 -106 17 -266 106 -558 81 -851 -73 -133 -71 -239 -149 -366
-271 -265 -254 -439 -544 -515 -854 -12 -52 -17 -112 -17 -221 1 -138 3 -157
28 -230 16 -44 35 -90 43 -103 14 -22 9 -33 -129 -245 -300 -461 -523 -851
-771 -1347 -765 -1532 -1223 -3156 -1370 -4865 -35 -405 -41 -568 -41 -1150 0
-580 5 -711 41 -1135 231 -2729 1314 -5368 3068 -7475 251 -300 456 -525 768
-841 l298 -301 -17 -64 c-27 -98 -24 -336 4 -450 101 -403 455 -770 808 -839
l60 -12 139 -401 c222 -644 336 -957 372 -1027 139 -267 437 -415 980 -487
104 -14 218 -17 583 -18 l453 -2 92 -240 c51 -132 102 -256 114 -276 54 -85
197 -191 320 -233 28 -10 52 -24 52 -30 0 -28 -51 -83 -118 -127 -39 -26 -72
-53 -72 -59 0 -36 126 -419 204 -621 51 -132 81 -181 152 -248 128 -119 383
-205 709 -239 60 -6 111 -12 112 -13 1 -2 -46 -41 -105 -87 -590 -468 -1084
-994 -1444 -1536 -135 -204 -222 -354 -328 -569 -240 -485 -379 -948 -436
-1450 -23 -204 -23 -566 0 -735 9 -68 18 -125 20 -127 1 -2 17 50 34 114 163
610 446 1142 851 1598 92 103 330 330 338 321 2 -1 -10 -42 -27 -90 -137 -408
-110 -827 77 -1151 59 -103 158 -231 224 -288 l51 -45 -13 -113 c-29 -253 -11
-624 42 -894 39 -196 123 -488 163 -564 13 -23 14 -23 26 30 60 253 254 728
503 1229 l122 245 -3 140 c-4 160 12 431 34 585 74 512 265 895 531 1067 29
18 56 33 61 33 5 0 -15 -60 -44 -134 -141 -352 -206 -700 -206 -1111 0 -290
25 -502 88 -765 l26 -106 -38 -64 c-96 -164 -223 -458 -304 -700 -140 -423
-240 -996 -240 -1374 l0 -121 71 129 c496 911 972 1511 1345 1696 45 23 103
43 131 46 l50 6 38 90 c78 181 230 436 351 588 75 94 175 202 181 196 3 -2
-30 -96 -72 -207 -230 -606 -359 -1101 -396 -1514 -11 -130 -6 -306 11 -348 5
-12 9 -17 9 -10 1 17 263 585 426 923 464 964 933 1763 1278 2175 77 92 236
252 297 299 54 42 149 96 169 96 6 0 -85 -192 -202 -427 -1263 -2540 -2015
-4600 -2194 -6008 -32 -253 -21 -825 16 -825 4 0 45 62 91 138 608 1001 1334
1953 2170 2847 226 242 751 762 985 976 1314 1203 2793 2226 4355 3013 362
183 838 399 1101 500 69 26 108 48 140 79 25 23 157 137 294 252 2030 1709
3138 2419 4345 2780 1597 478 3013 675 4270 594 906 -58 1758 -268 2412 -595
878 -439 1899 -1311 2903 -2479 169 -197 445 -535 480 -589 29 -43 100 -86
163 -98 150 -28 292 88 292 239 0 31 -231 1169 -560 2760 -602 2908 -568 2760
-643 2817 -17 13 -100 58 -183 100 l-152 75 38 113 c71 211 85 297 84 523 0
184 -2 208 -27 300 -36 133 -128 318 -220 441 -40 54 -81 105 -91 113 -9 8
-25 26 -36 41 l-19 27 46 94 c169 351 288 775 324 1152 17 188 7 549 -20 702
-76 425 -229 764 -501 1105 -127 158 -464 490 -750 737 -140 121 -296 260
-346 309 -323 318 -457 590 -495 1012 -14 151 -6 383 38 1142 22 378 27 541
27 965 1 349 -3 550 -12 635 -39 380 -95 694 -177 990 -251 905 -594 1598
-1171 2367 l-155 206 23 31 c227 304 316 546 305 836 -5 148 -27 251 -79 374
-16 39 -32 78 -34 86 -3 10 46 51 151 125 99 71 166 126 186 153 59 82 74 183
41 277 -19 52 -3433 5358 -3480 5408 -15 16 -40 38 -55 49 -16 12 -690 249
-1499 527 l-1470 507 -211 221 c-1288 1346 -2839 2395 -4562 3088 -1535 617
-3195 932 -4855 923 -179 -1 -356 -3 -395 -5z m1290 -627 c781 -60 1448 -166
2166 -346 1818 -456 3545 -1347 4974 -2564 465 -397 1008 -937 1411 -1406 949
-1103 1726 -2434 2228 -3818 394 -1084 622 -2169 713 -3382 22 -296 25 -1254
5 -1535 -60 -848 -172 -1606 -342 -2328 l-51 -218 52 -117 c29 -64 161 -333
294 -597 280 -557 418 -848 557 -1172 128 -300 248 -618 248 -658 0 -73 -106
-239 -254 -395 -129 -137 -441 -418 -452 -407 -2 2 7 41 21 87 54 181 70 291
69 485 0 153 -4 192 -22 260 -12 43 -108 268 -214 500 -105 231 -283 625 -395
875 -112 250 -207 458 -211 462 -4 4 -55 -34 -112 -83 -663 -575 -1769 -1324
-2985 -2021 -896 -514 -2261 -1235 -3176 -1679 -228 -110 -472 -229 -544 -264
-71 -34 -296 -142 -500 -238 -203 -96 -494 -234 -645 -307 -543 -261 -1023
-482 -1317 -605 -51 -22 -91 -40 -90 -42 2 -1 136 27 298 63 368 82 1035 250
1543 388 214 59 390 105 392 103 5 -4 -664 -335 -956 -472 -307 -145 -610
-282 -850 -385 -118 -51 -217 -95 -220 -98 -8 -8 57 5 325 65 435 96 1145 277
1715 437 107 30 196 54 197 52 5 -4 -896 -447 -1122 -552 -270 -124 -631 -284
-812 -359 -78 -33 -141 -60 -140 -62 2 -1 32 4 67 12 36 8 151 33 255 56 460
99 1065 253 1639 415 164 46 300 83 302 81 6 -5 -748 -380 -1011 -502 -288
-135 -637 -290 -867 -386 -97 -40 -175 -75 -173 -77 2 -2 93 15 202 38 500
105 1179 276 1761 443 162 47 290 81 285 76 -14 -14 -745 -379 -968 -483 -276
-129 -683 -309 -920 -407 -104 -43 -184 -79 -177 -79 7 0 111 21 230 46 612
128 1271 297 1896 485 127 38 231 67 233 65 4 -3 -24 -14 -592 -236 -1477
-576 -2963 -1097 -4474 -1569 -107 -34 -196 -60 -198 -58 -2 2 29 19 69 37
436 198 1553 738 1545 746 -2 2 -79 -17 -172 -42 -427 -114 -1492 -370 -1501
-361 -2 2 69 39 158 82 333 160 1422 724 1414 732 -1 1 -69 -18 -151 -43 -421
-126 -1504 -425 -1542 -424 -4 0 44 28 107 61 426 225 675 359 880 472 267
147 581 326 594 338 5 4 -119 -34 -275 -86 -442 -146 -1415 -442 -1424 -433
-2 2 74 46 168 97 546 300 1427 815 1414 827 -2 2 -113 -37 -248 -87 -329
-122 -1482 -507 -1459 -486 3 2 86 50 185 107 269 154 668 394 950 570 251
157 493 317 465 307 -8 -3 -123 -49 -255 -102 -281 -113 -695 -268 -1135 -425
-173 -62 -686 -249 -1140 -417 -908 -335 -1542 -566 -1750 -638 -231 -79 -859
-278 -1220 -385 -190 -57 -346 -104 -348 -105 -1 -1 97 -327 219 -724 121
-397 219 -724 217 -727 -14 -13 -880 -174 -889 -165 -4 3 -100 312 -214 686
-114 374 -209 681 -210 683 -2 2 -128 -28 -281 -67 -295 -74 -724 -174 -912
-212 -66 -14 -111 -27 -109 -34 19 -49 378 -1237 376 -1240 -6 -5 -299 -28
-303 -24 -1 2 -85 274 -186 604 -100 330 -184 603 -186 606 -2 3 -74 -6 -161
-21 -87 -16 -213 -36 -280 -46 -102 -15 -123 -20 -123 -35 0 -24 113 -398 235
-780 58 -179 105 -330 105 -334 0 -11 -224 2 -365 20 -205 27 -395 87 -445
140 -12 13 -53 110 -92 217 -62 174 -338 967 -338 973 0 1 33 5 73 9 39 4 167
20 282 37 1551 220 3348 853 4935 1739 374 209 331 176 453 345 137 191 506
741 667 995 605 955 1069 1806 1405 2575 47 107 85 199 85 204 0 25 27 14 151
-60 525 -314 1117 -515 1759 -594 172 -22 648 -31 824 -16 76 6 140 10 143 8
8 -9 -284 -99 -446 -138 -127 -31 -950 -179 -995 -179 -6 0 -6 -4 0 -10 15
-15 257 -78 380 -100 106 -18 301 -38 429 -43 l60 -2 -185 -62 c-205 -68 -385
-118 -780 -218 -146 -37 -269 -71 -273 -75 -9 -8 114 -32 263 -52 52 -7 202
-12 333 -12 131 0 232 -3 225 -7 -52 -27 -727 -270 -1128 -405 l-85 -28 60 -9
c86 -12 530 -1 664 17 63 9 116 14 118 12 2 -1 -273 -120 -610 -264 l-612
-262 65 0 c250 0 651 67 1139 190 151 39 276 68 278 66 4 -4 -362 -175 -722
-339 -233 -105 -1413 -634 -1552 -695 -45 -20 -81 -38 -78 -40 6 -6 433 102
680 173 1114 319 2509 852 3735 1427 140 66 361 166 490 223 2852 1247 5416
2700 6970 3950 319 256 448 373 460 414 36 125 210 856 210 881 0 7 -44 -30
-99 -81 -168 -160 -324 -237 -498 -247 -121 -6 -197 9 -309 63 -305 147 -540
571 -625 1127 -27 173 -36 533 -20 719 61 666 296 1244 640 1572 172 164 351
247 531 247 270 -1 503 -172 681 -502 l50 -93 -5 370 c-5 373 -14 538 -41 850
-212 2371 -1174 4570 -2899 6625 -419 499 -808 883 -1281 1266 -1143 923
-2666 1634 -4169 1944 -201 41 -554 102 -573 98 -8 -2 58 -23 148 -47 1156
-312 2341 -893 3314 -1625 743 -558 1416 -1260 1910 -1991 102 -150 95 -147
-44 25 -689 845 -1685 1594 -2746 2065 -183 81 -207 87 -115 30 977 -609 1850
-1494 2399 -2430 86 -145 327 -622 320 -630 -3 -2 -39 55 -81 128 -457 791
-1127 1469 -1878 1902 -136 79 -439 229 -446 222 -2 -2 30 -25 72 -52 122 -77
378 -273 519 -397 761 -671 1325 -1645 1559 -2694 90 -401 126 -705 133 -1110
8 -417 -23 -845 -91 -1256 -21 -130 -31 -164 -87 -295 -84 -197 -313 -651
-423 -838 -106 -180 -262 -419 -376 -575 -172 -238 -458 -577 -617 -733 l-60
-58 -339 89 c-941 248 -1869 447 -2534 542 -80 12 -181 32 -225 45 -242 74
-555 133 -847 161 -220 21 -725 15 -918 -10 -537 -71 -987 -203 -1430 -422
-361 -178 -671 -383 -970 -642 l-115 -100 -260 257 c-1094 1078 -3068 2775
-5795 4982 -261 211 -893 719 -1403 1128 -510 409 -927 748 -927 753 0 5 46
64 102 131 416 495 976 1059 1473 1483 1107 944 2388 1689 3763 2188 1104 401
2304 649 3467 716 105 6 213 12 240 14 146 10 1186 -3 1380 -18z m10509 -4854
l829 -287 1598 -2480 c879 -1364 1599 -2483 1599 -2487 0 -3 -503 -368 -1117
-809 -615 -441 -1134 -814 -1153 -828 l-35 -25 25 28 c14 15 287 278 607 584
l582 556 -18 30 c-54 89 -1961 3419 -1959 3421 3 2 2291 -3087 2310 -3118 7
-12 294 260 292 277 -1 10 -2866 4521 -2879 4535 -2 2 -156 -109 -342 -247
-186 -138 -340 -249 -341 -247 -2 2 102 158 232 346 130 189 233 346 229 350
-5 4 -298 159 -652 343 -354 185 -646 338 -649 341 -3 3 -1 5 4 4 5 0 382
-129 838 -287z m-21727 185 c18 -10 72 -50 120 -90 49 -40 221 -180 383 -311
162 -131 295 -242 295 -245 0 -4 -34 -38 -76 -76 -112 -103 -329 -342 -329
-364 0 -5 60 -55 133 -112 72 -57 240 -188 371 -292 131 -104 244 -191 251
-193 6 -3 57 48 112 113 55 65 144 164 199 221 l99 103 225 -181 c124 -100
229 -186 234 -191 6 -5 -21 -41 -70 -91 -122 -128 -314 -347 -314 -361 0 -12
353 -288 360 -281 4 5 47 56 95 114 103 125 283 320 295 320 7 0 255 -195 297
-234 10 -9 -11 -37 -93 -126 -96 -104 -260 -297 -277 -327 -5 -7 93 -93 260
-229 1410 -1148 3046 -2527 4298 -3624 533 -466 1300 -1152 1490 -1333 77 -73
79 -76 65 -99 -14 -23 -125 -217 -155 -272 l-15 -28 -163 158 c-777 760 -1995
1818 -3837 3335 -1349 1111 -3062 2488 -4687 3768 -233 183 -423 336 -423 340
0 4 22 44 49 89 143 238 367 435 571 504 68 22 189 20 237 -5z m-657 -1528
c91 -71 171 -136 178 -143 11 -11 -5 -41 -91 -172 -485 -740 -917 -1581 -1238
-2409 -32 -82 -54 -143 -48 -135 5 8 45 75 89 148 206 345 463 612 685 713
304 137 559 23 720 -323 l34 -73 0 67 c1 98 28 275 62 405 102 397 320 668
573 714 130 23 271 -28 393 -144 392 -372 492 -1249 212 -1855 -141 -306 -381
-483 -603 -445 -192 33 -379 212 -491 468 l-32 74 -6 -177 c-32 -945 -444
-2030 -972 -2557 -565 -566 -1067 -317 -1176 585 -14 114 -18 454 -7 615 6
100 6 100 -8 45 -31 -121 -116 -560 -153 -790 -87 -531 -135 -1001 -162 -1570
-13 -287 -7 -1088 10 -1340 133 -1910 586 -3545 1471 -5300 531 -1053 1109
-1924 1819 -2740 97 -112 -254 240 -414 415 -1033 1130 -1867 2462 -2443 3905
-1057 2648 -1206 5541 -427 8280 342 1205 876 2382 1565 3451 137 212 279 419
288 419 4 0 81 -59 172 -131z m191 -819 c137 -38 185 -295 97 -524 -25 -65
-43 -92 -92 -142 -84 -86 -146 -97 -216 -38 -131 111 -115 440 32 626 15 20
52 48 80 62 60 30 53 29 99 16z m21414 -1009 c161 -75 200 -310 70 -430 -125
-115 -311 -27 -347 165 -33 181 127 335 277 265z m-17830 -1581 c11 -361 -15
-668 -71 -832 -53 -158 -120 -246 -449 -598 -368 -394 -463 -525 -480 -665
-17 -129 34 -381 126 -636 67 -187 129 -317 227 -481 44 -73 108 -188 143
-256 64 -122 64 -124 64 -205 -2 -232 -194 -590 -983 -1832 -506 -795 -571
-912 -661 -1181 -142 -425 -35 -662 398 -883 139 -71 252 -110 406 -140 287
-57 383 -103 498 -239 97 -115 196 -354 217 -527 33 -267 -76 -583 -297 -854
-54 -66 -53 -84 7 -207 64 -131 181 -228 423 -350 198 -99 256 -155 273 -261
15 -93 -57 -263 -185 -441 -44 -61 -84 -120 -90 -131 -14 -26 -14 -97 1 -124
34 -64 542 -666 723 -857 91 -95 118 -154 123 -265 5 -114 -9 -174 -93 -399
-89 -241 -98 -281 -99 -463 -1 -107 -4 -149 -12 -142 -20 17 -84 164 -104 244
-29 110 -29 276 0 455 36 217 16 452 -45 541 -42 60 -194 197 -416 376 -254
203 -393 325 -429 375 -54 74 -73 142 -73 253 0 86 4 113 32 195 46 137 134
282 220 364 17 17 31 33 31 37 0 17 -91 115 -154 166 -39 31 -149 107 -245
170 -207 136 -277 199 -317 286 -26 56 -29 71 -28 167 1 129 25 215 124 445
109 255 122 320 92 465 -24 115 -57 206 -86 235 -12 11 -86 45 -166 75 -402
150 -782 396 -979 635 -176 214 -251 421 -252 695 -1 297 76 522 329 965 148
260 266 447 697 1105 383 585 517 807 597 983 44 97 44 180 -2 362 -36 148
-68 235 -152 420 -198 433 -275 673 -284 885 -5 102 -3 127 20 213 43 165 154
379 304 581 92 124 172 220 353 423 78 87 149 174 159 193 9 19 45 114 78 211
136 392 242 594 400 761 l67 71 6 -74 c4 -41 10 -180 14 -309z m18022 19 c174
-83 304 -347 304 -619 0 -171 -39 -295 -122 -385 -61 -67 -110 -89 -189 -89
-101 0 -195 57 -276 166 -244 332 -185 879 104 953 61 16 103 10 179 -26z
m4538 -1420 c87 -324 -174 -710 -790 -1172 -374 -280 -695 -464 -925 -531 -65
-19 -68 -23 100 94 658 454 1035 871 1089 1201 6 35 12 79 13 98 3 33 16 44
243 207 132 95 244 169 248 165 4 -5 14 -32 22 -62z m-13045 -64 c473 -56 864
-173 1290 -387 268 -134 455 -253 695 -444 151 -120 459 -431 588 -593 446
-560 716 -1203 813 -1936 22 -161 29 -571 14 -751 -78 -945 -482 -1801 -1158
-2456 -624 -603 -1392 -964 -2267 -1064 -205 -23 -597 -23 -800 0 -767 88
-1441 371 -2034 853 -145 118 -436 412 -555 562 -461 576 -735 1235 -828 1991
-20 166 -17 691 5 865 83 639 311 1234 666 1740 182 260 505 604 746 797 615
490 1341 776 2126 838 157 12 536 4 699 -15z m-9427 -592 c30 -258 66 -457 97
-549 24 -68 64 -134 83 -134 19 0 152 -66 205 -102 26 -17 97 -73 159 -124
131 -108 223 -175 295 -214 l52 -29 -30 -8 c-55 -14 -196 -7 -282 16 -46 12
-140 47 -210 77 -70 31 -173 71 -229 89 -119 38 -156 59 -211 119 -89 96 -131
227 -139 426 -6 153 10 274 53 412 25 81 109 258 123 258 3 0 19 -107 34 -237z
m22478 -918 c46 -64 84 -121 84 -127 0 -32 -393 -177 -598 -222 -148 -32 -198
-39 -173 -23 201 128 316 218 476 374 63 62 118 113 121 113 4 0 44 -52 90
-115z m339 -505 c38 -65 70 -122 70 -128 0 -21 -263 -110 -460 -156 -115 -27
-298 -56 -351 -56 -31 0 -28 4 46 43 161 87 355 225 510 365 78 70 92 79 102
65 7 -9 44 -69 83 -133z m-2600 -140 c41 -10 102 -22 135 -25 l61 -7 69 -107
c228 -348 462 -789 578 -1086 211 -541 409 -1351 471 -1930 46 -429 46 -1016
1 -1900 -34 -643 -38 -1040 -12 -1205 75 -488 261 -843 638 -1220 65 -65 222
-210 351 -322 316 -278 413 -382 527 -565 120 -194 176 -345 215 -580 l5 -31
-107 -7 c-271 -16 -456 -71 -633 -187 -158 -103 -273 -220 -382 -390 -34 -53
-65 -97 -68 -97 -4 -1 -226 111 -495 247 -269 137 -507 255 -528 262 -62 20
-130 7 -246 -48 -143 -68 -218 -86 -360 -86 -130 0 -227 22 -333 75 -72 36
-147 82 -147 90 0 3 30 30 68 61 453 373 701 738 679 998 -6 70 -25 131 -175
550 l-88 245 -115 0 c-98 1 -158 11 -187 31 -2 1 13 30 32 65 55 102 81 199
80 304 -1 85 -5 102 -77 310 -42 121 -94 265 -115 319 l-39 99 106 91 c316
269 577 583 677 813 56 130 69 193 68 333 0 116 -2 132 -33 220 -149 424 -336
858 -671 1550 -171 354 -264 553 -351 749 l-60 133 40 172 c113 484 204 1016
261 1521 19 172 50 524 50 567 0 15 4 18 18 13 9 -4 51 -15 92 -25z m1282 -51
c15 -11 33 -37 39 -59 32 -105 -111 -203 -205 -141 -84 55 -69 167 27 212 49
22 96 18 139 -12z m-21142 -42 c0 -77 -62 -386 -112 -561 l-32 -109 -33 38
c-120 139 -103 414 35 567 35 39 116 98 134 98 4 0 8 -15 8 -33z m22740 -287
c40 -83 70 -153 67 -156 -8 -9 -183 -42 -332 -63 -219 -32 -571 -52 -549 -32
5 5 45 24 89 42 159 65 395 195 572 314 37 25 70 45 74 45 3 0 38 -68 79 -150z
m-1340 -65 c69 -36 94 -106 62 -178 -70 -157 -313 -121 -299 44 5 56 35 102
85 129 44 23 112 25 152 5z m1586 -530 c29 -82 53 -153 53 -157 1 -12 -29 -16
-344 -48 -165 -17 -353 -39 -417 -48 -65 -10 -118 -17 -118 -15 0 10 222 137
496 283 126 67 233 126 239 131 24 23 41 -3 91 -146z m-1366 87 c40 -30 70
-81 70 -121 -1 -86 -87 -165 -180 -165 -147 0 -211 169 -102 267 53 48 160 57
212 19z m-21485 -209 c17 -138 62 -326 110 -471 30 -89 55 -166 55 -171 0 -11
-62 5 -103 26 -16 8 -46 30 -68 50 -171 154 -194 426 -51 576 20 20 39 37 43
37 4 0 11 -21 14 -47z m21622 -314 c95 -36 116 -144 41 -216 -67 -64 -160 -63
-217 2 -58 66 -33 162 52 204 47 23 82 26 124 10z m1392 -86 c33 -123 63 -264
59 -269 -3 -2 -121 5 -264 16 -142 11 -346 23 -451 27 -106 3 -193 9 -193 13
0 10 235 96 550 201 146 48 268 88 271 88 4 1 16 -34 28 -76z m-21029 12 c0
-7 -255 -389 -443 -665 -219 -321 -387 -537 -408 -524 -15 9 -10 209 7 292 89
437 411 809 769 887 72 16 75 16 75 10z m19741 -455 c40 -11 83 -52 98 -93 25
-66 -27 -145 -109 -167 -89 -24 -180 39 -180 123 0 78 50 127 150 146 3 0 21
-4 41 -9z m1403 -127 c6 -30 36 -287 36 -314 0 -15 -9 -14 -102 1 -197 34
-334 44 -576 44 l-242 1 47 24 c149 76 432 176 663 235 166 43 167 43 174 9z
m-1299 -443 c27 0 84 -61 91 -96 19 -100 -111 -180 -203 -124 -71 43 -83 123
-28 180 27 28 88 52 113 44 8 -2 20 -4 27 -4z m1353 -314 l2 -168 -32 6 c-143
26 -621 25 -813 -3 -33 -5 -62 -7 -64 -5 -6 6 235 122 359 172 168 67 508 174
535 168 6 -2 11 -69 13 -170z m-1251 -245 c126 -58 74 -231 -69 -231 -63 0
-128 62 -128 122 0 39 38 88 83 108 52 24 62 24 114 1z m-22078 -274 c139
-319 237 -461 544 -791 182 -196 263 -294 349 -420 157 -235 252 -505 265
-756 l5 -115 -112 180 c-193 311 -287 433 -580 749 -191 208 -260 291 -333
401 -137 209 -208 409 -223 635 -7 105 3 277 16 264 5 -5 35 -71 69 -147z
m23315 -109 c-4 -95 -7 -174 -8 -175 -1 -1 -55 14 -121 33 -235 69 -489 117
-680 129 -49 4 -101 9 -115 12 -23 5 -22 6 15 20 184 65 628 143 868 151 l48
2 -7 -172z m-1189 -224 c99 -47 88 -178 -19 -219 -87 -33 -176 22 -176 109 0
95 104 154 195 110z m1161 -331 c-4 -60 -9 -138 -12 -174 l-6 -66 -81 24
c-216 63 -474 98 -677 91 l-131 -4 64 33 c88 44 268 105 407 137 122 29 339
64 403 65 l39 1 -6 -107z m-1149 -313 c49 -30 66 -63 60 -116 -16 -147 -236
-166 -278 -24 -33 108 115 203 218 140z m1117 -322 c-4 -95 -8 -174 -9 -176
-1 -1 -55 7 -121 18 -201 35 -402 46 -566 32 -79 -7 -156 -15 -173 -18 -29 -5
-29 -5 -10 11 39 32 301 154 410 190 97 32 260 75 395 103 88 19 82 34 74
-160z m-17564 -522 c-365 -892 -988 -2018 -1753 -3166 -212 -319 -359 -530
-383 -551 -25 -22 -324 -187 -602 -333 -1675 -881 -3622 -1474 -5029 -1532
-155 -7 -163 -6 -205 16 -23 12 -64 40 -89 61 -50 42 -135 146 -127 155 3 3
75 14 159 25 504 64 1014 165 1624 319 1387 351 2651 863 3730 1510 l180 108
157 224 c824 1178 1566 2460 2003 3460 l68 156 162 -156 162 -156 -57 -140z
m16430 153 c123 -70 78 -243 -68 -257 -107 -10 -189 74 -162 168 27 93 142
138 230 89z m1130 -31 c1 -27 25 -235 36 -297 l7 -44 -75 6 c-94 8 -352 -7
-489 -28 -120 -19 -278 -57 -352 -85 -28 -11 -53 -18 -55 -16 -6 7 128 111
218 169 104 67 246 143 360 193 93 40 318 123 338 123 6 1 12 -9 12 -21z m118
-597 c12 -38 45 -114 72 -170 28 -56 50 -106 50 -112 0 -5 -31 -9 -69 -9 -244
0 -669 -98 -906 -209 -84 -39 -85 -39 -65 -13 59 75 277 251 435 349 136 85
426 233 456 233 3 0 15 -31 27 -69z m-1227 -127 c14 -7 40 -29 56 -48 117
-132 -55 -331 -225 -261 -95 40 -136 130 -98 218 41 96 171 140 267 91z m1511
-388 c27 -35 82 -101 124 -145 42 -45 75 -83 73 -85 -2 -2 -56 -18 -119 -35
-287 -80 -606 -235 -807 -392 -35 -27 -63 -47 -63 -44 0 3 23 41 52 83 106
159 257 327 416 465 97 84 262 216 272 217 3 0 26 -29 52 -64z m-4227 -481
c60 -175 75 -227 70 -255 -10 -52 -58 -146 -117 -225 -65 -88 -281 -304 -413
-414 -590 -492 -1547 -1072 -2820 -1709 -365 -182 -882 -432 -894 -432 -3 0
59 34 139 76 1653 863 2578 1435 3305 2044 146 122 279 240 270 240 -2 0 -33
-17 -67 -38 -471 -289 -1482 -852 -2328 -1297 -353 -186 -1540 -771 -1540
-759 0 2 114 61 253 130 1022 511 2091 1125 2728 1564 272 188 650 481 848
658 l26 23 -25 -12 c-14 -7 -137 -76 -275 -154 -2069 -1175 -4287 -2240 -6520
-3130 -446 -178 -960 -375 -977 -375 -29 0 5 -10 67 -20 78 -12 173 -53 222
-94 18 -15 44 -51 59 -82 108 -221 -168 -502 -545 -554 -209 -28 -400 51 -461
192 -40 93 -10 210 81 312 29 33 37 47 24 42 -57 -22 -667 -234 -1000 -347
-1944 -664 -4078 -1281 -5583 -1615 -910 -202 -2027 -399 -2694 -475 -59 -7
-112 -15 -118 -19 -22 -13 61 -239 119 -325 18 -26 30 -50 27 -52 -7 -8 -208
26 -287 48 -85 23 -176 68 -205 100 -29 33 -146 339 -131 344 7 2 98 13 202
25 3063 343 8332 1924 12858 3859 2336 999 4294 2023 5477 2864 74 53 138 93
141 89 4 -4 42 -106 84 -227z m3007 89 c63 -32 99 -117 79 -186 -61 -205 -361
-201 -361 4 0 66 19 107 70 151 63 54 142 66 212 31z m1759 -146 c77 -66 136
-124 132 -128 -4 -3 -52 -19 -107 -34 -255 -70 -609 -242 -781 -380 -64 -51
-70 -52 -45 -8 53 93 163 226 314 378 143 143 316 294 338 294 5 0 71 -55 149
-122z m544 -500 c72 -73 142 -146 155 -162 l25 -29 -76 7 c-145 13 -382 -21
-555 -79 -150 -50 -382 -175 -461 -248 -41 -37 -24 -4 41 84 85 113 269 288
387 369 88 60 322 189 344 190 6 0 69 -60 140 -132z m-1780 46 c90 -42 105
-158 32 -241 -139 -158 -369 3 -253 177 47 72 145 100 221 64z m-3253 -488
c42 -14 82 -26 90 -26 8 0 41 -79 87 -210 83 -237 83 -239 25 -351 -50 -95
-144 -208 -291 -349 -436 -419 -1214 -930 -2308 -1518 -256 -137 -1382 -702
-1400 -702 -5 0 98 57 230 126 1327 696 2303 1301 2975 1843 122 98 379 320
399 345 8 9 -62 -29 -155 -85 -591 -354 -1456 -840 -2214 -1241 -246 -131
-1482 -748 -1496 -748 -5 0 97 55 226 121 1368 702 2404 1322 3095 1854 158
121 410 331 440 366 l20 23 -40 -23 c-591 -344 -1279 -721 -2150 -1181 -968
-510 -2419 -1193 -3670 -1727 -590 -252 -990 -413 -1830 -739 l-100 -39 65 -6
c166 -18 281 -96 316 -214 65 -226 -240 -496 -592 -522 -196 -14 -364 58 -425
183 -44 92 -12 221 80 326 l42 47 -83 -30 c-681 -249 -1961 -679 -2808 -944
-1460 -457 -3156 -910 -4091 -1094 -838 -165 -1836 -278 -2387 -270 -133 2
-242 1 -242 -3 0 -20 73 -226 103 -291 36 -78 97 -173 142 -219 l26 -28 -35 0
c-19 0 -86 9 -150 20 -190 32 -323 85 -361 144 -18 28 -118 290 -136 357 -12
44 -11 48 14 81 29 37 80 145 91 192 7 28 8 28 54 22 104 -14 573 -18 772 -7
2963 171 9097 2071 13615 4216 1809 859 3240 1725 3814 2308 l74 75 46 -28
c25 -16 81 -40 123 -54z m3673 -6 c63 -61 57 -149 -14 -213 -143 -129 -334 47
-207 191 41 46 80 63 139 59 38 -3 55 -11 82 -37z m1824 -172 c53 -113 107
-265 98 -274 -3 -3 -45 3 -94 15 -144 34 -271 44 -462 38 -251 -8 -407 -40
-636 -132 -109 -44 -110 -44 -75 -15 75 65 183 143 257 187 209 124 489 224
733 263 41 6 82 13 90 15 8 1 21 3 28 4 8 0 34 -44 61 -101z m-1629 -253 c36
-19 50 -43 50 -87 0 -45 -30 -91 -73 -111 -43 -21 -70 -21 -107 -2 -62 32 -77
96 -37 156 39 58 106 76 167 44z m1475 -300 c94 -15 211 -45 281 -71 27 -9 44
-23 48 -37 8 -29 8 -321 0 -341 -5 -13 -15 -9 -53 23 -319 266 -836 376 -1223
261 -82 -25 -58 -5 67 55 251 121 571 161 880 110z m-1375 -40 c106 -55 59
-195 -66 -195 -28 0 -44 8 -71 35 -31 31 -35 40 -30 72 7 42 30 71 72 89 39
17 60 17 95 -1z m54 -329 c74 -31 88 -106 32 -162 -28 -28 -41 -34 -78 -34
-52 0 -85 21 -104 66 -23 55 9 115 73 134 39 12 40 12 77 -4z m770 -176 c212
-20 412 -78 597 -171 116 -58 208 -115 215 -133 6 -17 -16 -108 -64 -255 -35
-110 -37 -113 -52 -90 -175 268 -521 492 -873 566 -53 11 -130 17 -219 17
-125 1 -134 2 -100 14 86 30 236 56 352 61 19 0 84 -4 144 -9z m-1328 -610
c295 -60 624 -183 1045 -391 326 -161 541 -288 724 -428 87 -66 250 -226 307
-301 61 -80 122 -203 145 -290 34 -134 16 -335 -47 -502 l-21 -57 -148 74
-148 74 -7 85 c-12 163 -83 331 -212 505 -79 107 -326 348 -469 459 -293 227
-681 468 -1120 694 -104 54 -180 98 -169 98 12 0 66 -9 120 -20z m-3720 -251
c138 -48 232 -59 589 -69 465 -13 567 -28 725 -103 68 -33 102 -58 166 -122
68 -67 90 -98 127 -176 43 -89 77 -198 91 -298 4 -24 13 -155 21 -290 8 -135
19 -271 26 -301 25 -120 63 -159 277 -290 293 -179 350 -216 440 -282 186
-138 313 -278 396 -438 39 -75 71 -160 61 -160 -2 0 -25 18 -51 40 -167 146
-335 226 -801 384 -434 147 -584 234 -696 404 -106 160 -138 296 -157 671 -11
228 -26 324 -60 390 -42 83 -124 119 -453 200 -309 77 -492 148 -643 252 -88
61 -178 156 -218 229 l-27 50 63 -35 c36 -19 91 -44 124 -56z m4336 -1508
c1054 -535 1923 -978 1932 -984 11 -9 142 -625 451 -2121 240 -1159 435 -2110
433 -2111 -2 -2 -73 73 -158 166 -85 93 -181 198 -213 233 l-58 63 -330 1539
c-181 847 -333 1547 -337 1557 -6 15 -129 -120 -637 -699 -347 -395 -635 -724
-641 -732 -9 -12 -33 -2 -145 65 -74 44 -153 90 -177 102 l-43 22 18 24 c10
13 329 378 710 812 381 433 692 793 690 798 -1 6 -807 529 -1792 1163 -984
634 -1794 1158 -1800 1164 -5 6 33 -12 85 -40 52 -27 957 -487 2012 -1021z
m-4275 321 c51 -17 116 -45 145 -61 120 -68 230 -182 292 -301 32 -61 76 -186
76 -216 0 -8 -40 13 -99 52 -293 192 -472 225 -809 150 -234 -52 -379 -69
-582 -70 -187 0 -287 11 -436 49 -99 25 -300 113 -287 126 4 3 226 59 493 122
423 101 550 129 795 176 28 6 111 9 185 7 120 -3 145 -6 227 -34z m-685 -970
c51 -26 130 -53 208 -72 361 -88 381 -95 517 -186 106 -71 183 -98 522 -184
269 -68 475 -131 549 -169 l34 -17 -84 -32 c-185 -70 -345 -101 -564 -109
-306 -11 -520 51 -701 201 -41 34 -124 83 -236 139 -250 124 -355 211 -432
359 -36 68 -64 173 -65 237 l0 33 84 -79 c61 -58 107 -91 168 -121z m2921
-928 c191 -26 378 -85 509 -159 83 -46 84 -46 -117 -74 -416 -60 -943 -60
-1300 -1 -105 18 -255 53 -255 60 0 9 140 74 213 99 120 41 322 78 517 95 79
7 321 -4 433 -20z m-3838 -163 c-256 -137 -518 -270 -672 -340 -1198 -549
-3200 -1955 -5213 -3661 l-255 -217 -170 -55 c-849 -276 -1893 -779 -3035
-1461 -380 -227 -928 -574 -1098 -695 -35 -24 -66 -42 -69 -38 -3 3 9 79 27
168 105 520 343 1209 634 1841 l36 78 -43 -36 c-94 -79 -276 -293 -422 -499
-257 -364 -483 -753 -850 -1466 -103 -201 -214 -403 -246 -450 -120 -175 -424
-549 -880 -1080 -441 -515 -1321 -1512 -1327 -1505 -11 11 625 1246 900 1750
692 1265 1467 2500 2003 3190 145 186 679 687 1186 1112 1061 889 2460 1829
3784 2542 201 109 614 317 600 303 -5 -5 -120 -92 -255 -192 -1462 -1093
-2559 -2074 -3147 -2812 -138 -173 -315 -440 -301 -453 2 -3 78 59 169 137
1772 1528 3654 2760 5354 3503 295 129 770 313 781 302 1 -1 -146 -101 -329
-222 -1145 -760 -2042 -1438 -2787 -2109 -300 -270 -731 -717 -861 -894 -30
-41 -22 -37 162 84 1487 975 2684 1677 3834 2249 747 371 1308 610 1850 788
252 83 552 162 680 180 17 2 35 5 40 5 6 1 -30 -20 -80 -47z m-11351 -2568
c-69 -288 -433 -609 -897 -793 -140 -55 -199 -94 -332 -221 -107 -102 -406
-352 -570 -476 -136 -103 -275 -186 -344 -208 -23 -7 -22 -4 14 45 36 50 315
527 315 540 0 8 -370 68 -511 82 -137 14 -319 0 -456 -35 -51 -13 -93 -20 -93
-17 0 4 13 25 28 46 53 72 131 135 215 174 163 75 313 98 727 110 173 5 329
13 346 18 18 6 65 38 105 72 41 34 112 88 159 119 128 86 172 103 745 287 218
70 405 160 485 233 30 28 58 50 63 51 4 0 4 -12 1 -27z"/>
<path d="M18085 40603 c-905 -26 -1852 -201 -2755 -508 -1732 -589 -3310
-1688 -4351 -3030 -104 -133 -242 -326 -237 -330 2 -1 57 40 123 92 359 282
941 708 1305 955 995 675 2072 1246 3153 1673 1151 454 2312 762 3769 1001
189 31 350 58 358 62 20 7 -196 37 -410 57 -309 27 -642 37 -955 28z"/>
<path d="M22058 40433 c7 -3 16 -2 19 1 4 3 -2 6 -13 5 -11 0 -14 -3 -6 -6z"/>
<path d="M16835 39283 c-859 -70 -1691 -310 -2537 -734 -871 -436 -1704 -1065
-2243 -1694 -94 -109 -95 -111 -25 -68 36 22 207 128 380 235 787 486 1276
763 1922 1088 914 460 1667 767 2623 1070 160 50 301 95 315 100 24 8 -343 11
-435 3z"/>
<path d="M25350 36962 c-55 -27 -72 -71 -67 -172 8 -133 67 -282 176 -443 203
-302 481 -449 555 -293 36 77 12 242 -59 390 -118 248 -353 492 -506 525 -63
14 -58 14 -99 -7z"/>
<path d="M25420 35789 c-131 -25 -210 -138 -240 -344 -14 -101 -12 -471 5
-830 17 -360 19 -866 5 -1075 -21 -299 -57 -560 -140 -1006 -89 -473 -109
-684 -79 -826 27 -128 102 -227 215 -282 160 -79 352 9 560 256 337 402 589
1023 659 1627 19 163 19 514 0 696 -69 656 -309 1285 -613 1607 -133 140 -254
198 -372 177z"/>
<path d="M20925 29569 c-341 -26 -737 -127 -1036 -266 l-97 -45 24 -53 c75
-164 69 -373 -16 -579 -94 -224 -323 -452 -554 -549 -125 -53 -194 -68 -321
-74 -144 -6 -236 10 -336 61 l-69 34 -44 -77 c-210 -365 -347 -793 -391 -1220
-9 -84 -14 -155 -12 -157 4 -4 3190 2914 3195 2928 4 10 -192 8 -343 -3z"/>
<path d="M19875 27883 l-1797 -1648 7 -75 c14 -161 71 -450 89 -452 15 -1
4028 3684 4019 3692 -23 22 -434 130 -495 130 -21 0 -374 -319 -1823 -1647z"/>
<path d="M20798 26877 l-2247 -2061 66 -95 c75 -109 184 -245 271 -341 l59
-64 25 19 c15 11 877 801 1917 1755 1287 1181 1905 1741 1934 1754 56 25 139
25 197 -1 55 -24 123 -96 140 -147 20 -63 9 -156 -25 -210 -20 -30 -691 -652
-1912 -1772 -1036 -949 -1883 -1728 -1883 -1732 0 -9 158 -114 263 -177 367
-215 797 -356 1247 -406 135 -15 495 -15 630 0 937 105 1751 595 2259 1361
265 399 418 797 492 1280 20 125 23 186 23 435 1 254 -2 309 -23 445 -98 652
-384 1238 -833 1706 -94 98 -302 285 -338 304 -11 6 -595 -524 -2262 -2053z"/>
</g>
</svg>
